<?xml version="1.0" encoding="utf-8" ?>
<svg baseProfile="full" height="1325.0" id="game_board" version="1.1" width="1325.0" xmlns="http://www.w3.org/2000/svg" xmlns:ev="http://www.w3.org/2001/xml-events" xmlns:xlink="http://www.w3.org/1999/xlink"><defs /><rect fill="none" height="1325.0" stroke="black" stroke-width="1" width="1325.0" x="0" y="0" /><polygon fill="#d2e6ff" points="12.5,12.5 112.5,12.5 112.5,112.5 12.5,112.5" stroke="#c3cdd8" stroke-width="1" /><circle cx="62.5" cy="62.5" fill="#8a7af0" r="15" stroke="#a6a6a6" stroke-width="1" /><polygon fill="#d2e6ff" points="112.5,12.5 212.5,12.5 212.5,112.5 112.5,112.5" stroke="#c3cdd8" stroke-width="1" /><circle cx="162.5" cy="62.5" fill="#8a7af0" r="15" stroke="#a6a6a6" stroke-width="1" /><polygon fill="#d2e6ff" points="212.5,12.5 312.5,12.5 312.5,112.5 212.5,112.5" stroke="#c3cdd8" stroke-width="1" /><circle cx="262.5" cy="62.5" fill="#8a7af0" r="15" stroke="#a6a6a6" stroke-width="1" /><polygon fill="#d2e6ff" points="312.5,12.5 412.5,12.5 412.5,112.5 312.5,112.5" stroke="#c3cdd8" stroke-width="1" /><circle cx="362.5" cy="62.5" fill="#8a7af0" r="15" stroke="#a6a6a6" stroke-width="1" /><polygon fill="#d2e6ff" points="412.5,12.5 512.5,12.5 512.5,112.5 412.5,112.5" stroke="#c3cdd8" stroke-width="1" /><circle cx="462.5" cy="62.5" fill="#8a7af0" r="15" stroke="#a6a6a6" stroke-width="1" /><polygon fill="#d2e6ff" points="512.5,12.5 612.5,12.5 612.5,112.5 512.5,112.5" stroke="#c3cdd8" stroke-width="1" /><circle cx="562.5" cy="62.5" fill="#8a7af0" r="15" stroke="#a6a6a6" stroke-width="1" /><polygon fill="#d2e6ff" points="612.5,12.5 712.5,12.5 712.5,112.5 612.5,112.5" stroke="#c3cdd8" stroke-width="1" /><circle cx="662.5" cy="62.5" fill="#8a7af0" r="15" stroke="#a6a6a6" stroke-width="1" /><polygon fill="#d2e6ff" points="712.5,12.5 812.5,12.5 812.5,112.5 712.5,112.5" stroke="#c3cdd8" stroke-width="1" /><circle cx="762.5" cy="62.5" fill="#8a7af0" r="15" stroke="#a6a6a6" stroke-width="1" /><polygon fill="#d2e6ff" points="812.5,12.5 912.5,12.5 912.5,112.5 812.5,112.5" stroke="#c3cdd8" stroke-width="1" /><circle cx="862.5" cy="62.5" fill="#8a7af0" r="15" stroke="#a6a6a6" stroke-width="1" /><polygon fill="#d2e6ff" points="912.5,12.5 1012.5,12.5 1012.5,112.5 912.5,112.5" stroke="#c3cdd8" stroke-width="1" /><circle cx="962.5" cy="62.5" fill="#8a7af0" r="15" stroke="#a6a6a6" stroke-width="1" /><polygon fill="#d2e6ff" points="1012.5,12.5 1112.5,12.5 1112.5,112.5 1012.5,112.5" stroke="#c3cdd8" stroke-width="1" /><circle cx="1062.5" cy="62.5" fill="#8a7af0" r="15" stroke="#a6a6a6" stroke-width="1" /><polygon fill="#d2e6ff" points="1112.5,12.5 1212.5,12.5 1212.5,112.5 1112.5,112.5" stroke="#c3cdd8" stroke-width="1" /><circle cx="1162.5" cy="62.5" fill="#8a7af0" r="15" stroke="#a6a6a6" stroke-width="1" /><polygon fill="#d2e6ff" points="1212.5,12.5 1312.5,12.5 1312.5,112.5 1212.5,112.5" stroke="#c3cdd8" stroke-width="1" /><circle cx="1262.5" cy="62.5" fill="#8a7af0" r="15" stroke="#a6a6a6" stroke-width="1" /><polygon fill="#d2e6ff" points="12.5,112.5 112.5,112.5 112.5,212.5 12.5,212.5" stroke="#c3cdd8" stroke-width="1" /><circle cx="62.5" cy="162.5" fill="#8a7af0" r="15" stroke="#a6a6a6" stroke-width="1" /><polygon fill="#d2e6ff" points="112.5,112.5 212.5,112.5 212.5,212.5 112.5,212.5" stroke="#c3cdd8" stroke-width="1" /><circle cx="162.5" cy="162.5" fill="#8a7af0" r="15" stroke="#a6a6a6" stroke-width="1" /><polygon fill="#d2e6ff" points="212.5,112.5 312.5,112.5 312.5,212.5 212.5,212.5" stroke="#c3cdd8" stroke-width="1" /><circle cx="262.5" cy="162.5" fill="#8a7af0" r="15" stroke="#a6a6a6" stroke-width="1" /><polygon fill="#d2e6ff" points="312.5,112.5 412.5,112.5 412.5,212.5 312.5,212.5" stroke="#c3cdd8" stroke-width="1" /><circle cx="362.5" cy="162.5" fill="#8a7af0" r="15" stroke="#a6a6a6" stroke-width="1" /><polygon fill="#d2e6ff" points="412.5,112.5 512.5,112.5 512.5,212.5 412.5,212.5" stroke="#c3cdd8" stroke-width="1" /><circle cx="462.5" cy="162.5" fill="#8a7af0" r="15" stroke="#a6a6a6" stroke-width="1" /><polygon fill="#d2e6ff" points="512.5,112.5 612.5,112.5 612.5,212.5 512.5,212.5" stroke="#c3cdd8" stroke-width="1" /><circle cx="562.5" cy="162.5" fill="#8a7af0" r="15" stroke="#a6a6a6" stroke-width="1" /><polygon fill="#d2e6ff" points="612.5,112.5 712.5,112.5 712.5,212.5 612.5,212.5" stroke="#c3cdd8" stroke-width="1" /><circle cx="662.5" cy="162.5" fill="#8a7af0" r="15" stroke="#a6a6a6" stroke-width="1" /><polygon fill="#d2e6ff" points="712.5,112.5 812.5,112.5 812.5,212.5 712.5,212.5" stroke="#c3cdd8" stroke-width="1" /><circle cx="762.5" cy="162.5" fill="#8a7af0" r="15" stroke="#a6a6a6" stroke-width="1" /><polygon fill="#d2e6ff" points="812.5,112.5 912.5,112.5 912.5,212.5 812.5,212.5" stroke="#c3cdd8" stroke-width="1" /><circle cx="862.5" cy="162.5" fill="#8a7af0" r="15" stroke="#a6a6a6" stroke-width="1" /><polygon fill="#d2e6ff" points="912.5,112.5 1012.5,112.5 1012.5,212.5 912.5,212.5" stroke="#c3cdd8" stroke-width="1" /><circle cx="962.5" cy="162.5" fill="#8a7af0" r="15" stroke="#a6a6a6" stroke-width="1" /><polygon fill="#d2e6ff" points="1012.5,112.5 1112.5,112.5 1112.5,212.5 1012.5,212.5" stroke="#c3cdd8" stroke-width="1" /><circle cx="1062.5" cy="162.5" fill="#8a7af0" r="15" stroke="#a6a6a6" stroke-width="1" /><polygon fill="#d2e6ff" points="1112.5,112.5 1212.5,112.5 1212.5,212.5 1112.5,212.5" stroke="#c3cdd8" stroke-width="1" /><circle cx="1162.5" cy="162.5" fill="#8a7af0" r="15" stroke="#a6a6a6" stroke-width="1" /><polygon fill="#d2e6ff" points="1212.5,112.5 1312.5,112.5 1312.5,212.5 1212.5,212.5" stroke="#c3cdd8" stroke-width="1" /><circle cx="1262.5" cy="162.5" fill="#8a7af0" r="15" stroke="#a6a6a6" stroke-width="1" /><polygon fill="#d2e6ff" points="12.5,212.5 112.5,212.5 112.5,312.5 12.5,312.5" stroke="#c3cdd8" stroke-width="1" /><circle cx="62.5" cy="262.5" fill="#8a7af0" r="15" stroke="#a6a6a6" stroke-width="1" /><polygon fill="#d2e6ff" points="112.5,212.5 212.5,212.5 212.5,312.5 112.5,312.5" stroke="#c3cdd8" stroke-width="1" /><circle cx="162.5" cy="262.5" fill="#8a7af0" r="15" stroke="#a6a6a6" stroke-width="1" /><polygon fill="#d2e6ff" points="212.5,212.5 312.5,212.5 312.5,312.5 212.5,312.5" stroke="#c3cdd8" stroke-width="1" /><circle cx="262.5" cy="262.5" fill="#8a7af0" r="15" stroke="#a6a6a6" stroke-width="1" /><polygon fill="#d2e6ff" points="312.5,212.5 412.5,212.5 412.5,312.5 312.5,312.5" stroke="#c3cdd8" stroke-width="1" /><circle cx="362.5" cy="262.5" fill="#8a7af0" r="15" stroke="#a6a6a6" stroke-width="1" /><polygon fill="#d2e6ff" points="412.5,212.5 512.5,212.5 512.5,312.5 412.5,312.5" stroke="#c3cdd8" stroke-width="1" /><circle cx="462.5" cy="262.5" fill="#8a7af0" r="15" stroke="#a6a6a6" stroke-width="1" /><polygon fill="#d2e6ff" points="512.5,212.5 612.5,212.5 612.5,312.5 512.5,312.5" stroke="#c3cdd8" stroke-width="1" /><circle cx="562.5" cy="262.5" fill="#8a7af0" r="15" stroke="#a6a6a6" stroke-width="1" /><polygon fill="#d2e6ff" points="612.5,212.5 712.5,212.5 712.5,312.5 612.5,312.5" stroke="#c3cdd8" stroke-width="1" /><circle cx="662.5" cy="262.5" fill="#8a7af0" r="15" stroke="#a6a6a6" stroke-width="1" /><polygon fill="#d2e6ff" points="712.5,212.5 812.5,212.5 812.5,312.5 712.5,312.5" stroke="#c3cdd8" stroke-width="1" /><circle cx="762.5" cy="262.5" fill="#8a7af0" r="15" stroke="#a6a6a6" stroke-width="1" /><polygon fill="#d2e6ff" points="812.5,212.5 912.5,212.5 912.5,312.5 812.5,312.5" stroke="#c3cdd8" stroke-width="1" /><circle cx="862.5" cy="262.5" fill="#8a7af0" r="15" stroke="#a6a6a6" stroke-width="1" /><polygon fill="#d2e6ff" points="912.5,212.5 1012.5,212.5 1012.5,312.5 912.5,312.5" stroke="#c3cdd8" stroke-width="1" /><circle cx="962.5" cy="262.5" fill="#8a7af0" r="15" stroke="#a6a6a6" stroke-width="1" /><polygon fill="#d2e6ff" points="1012.5,212.5 1112.5,212.5 1112.5,312.5 1012.5,312.5" stroke="#c3cdd8" stroke-width="1" /><circle cx="1062.5" cy="262.5" fill="#8a7af0" r="15" stroke="#a6a6a6" stroke-width="1" /><polygon fill="#d2e6ff" points="1112.5,212.5 1212.5,212.5 1212.5,312.5 1112.5,312.5" stroke="#c3cdd8" stroke-width="1" /><circle cx="1162.5" cy="262.5" fill="#8a7af0" r="15" stroke="#a6a6a6" stroke-width="1" /><polygon fill="#d2e6ff" points="1212.5,212.5 1312.5,212.5 1312.5,312.5 1212.5,312.5" stroke="#c3cdd8" stroke-width="1" /><circle cx="1262.5" cy="262.5" fill="#8a7af0" r="15" stroke="#a6a6a6" stroke-width="1" /><polygon fill="#d2e6ff" points="12.5,312.5 112.5,312.5 112.5,412.5 12.5,412.5" stroke="#c3cdd8" stroke-width="1" /><circle cx="62.5" cy="362.5" fill="#8a7af0" r="15" stroke="#a6a6a6" stroke-width="1" /><polygon fill="#d2e6ff" points="112.5,312.5 212.5,312.5 212.5,412.5 112.5,412.5" stroke="#c3cdd8" stroke-width="1" /><circle cx="162.5" cy="362.5" fill="#8a7af0" r="15" stroke="#a6a6a6" stroke-width="1" /><polygon fill="#d2e6ff" points="212.5,312.5 312.5,312.5 312.5,412.5 212.5,412.5" stroke="#c3cdd8" stroke-width="1" /><circle cx="262.5" cy="362.5" fill="#8a7af0" r="15" stroke="#a6a6a6" stroke-width="1" /><polygon fill="#d2e6ff" points="312.5,312.5 412.5,312.5 412.5,412.5 312.5,412.5" stroke="#c3cdd8" stroke-width="1" /><circle cx="362.5" cy="362.5" fill="#8a7af0" r="15" stroke="#a6a6a6" stroke-width="1" /><polygon fill="#d2e6ff" points="412.5,312.5 512.5,312.5 512.5,412.5 412.5,412.5" stroke="#c3cdd8" stroke-width="1" /><circle cx="462.5" cy="362.5" fill="#8a7af0" r="15" stroke="#a6a6a6" stroke-width="1" /><polygon fill="#d2e6ff" points="512.5,312.5 612.5,312.5 612.5,412.5 512.5,412.5" stroke="#c3cdd8" stroke-width="1" /><circle cx="562.5" cy="362.5" fill="#8a7af0" r="15" stroke="#a6a6a6" stroke-width="1" /><polygon fill="#d2e6ff" points="612.5,312.5 712.5,312.5 712.5,412.5 612.5,412.5" stroke="#c3cdd8" stroke-width="1" /><circle cx="662.5" cy="362.5" fill="#8a7af0" r="15" stroke="#a6a6a6" stroke-width="1" /><polygon fill="#d2e6ff" points="712.5,312.5 812.5,312.5 812.5,412.5 712.5,412.5" stroke="#c3cdd8" stroke-width="1" /><circle cx="762.5" cy="362.5" fill="#8a7af0" r="15" stroke="#a6a6a6" stroke-width="1" /><polygon fill="#d2e6ff" points="812.5,312.5 912.5,312.5 912.5,412.5 812.5,412.5" stroke="#c3cdd8" stroke-width="1" /><circle cx="862.5" cy="362.5" fill="#8a7af0" r="15" stroke="#a6a6a6" stroke-width="1" /><polygon fill="#d2e6ff" points="912.5,312.5 1012.5,312.5 1012.5,412.5 912.5,412.5" stroke="#c3cdd8" stroke-width="1" /><circle cx="962.5" cy="362.5" fill="#8a7af0" r="15" stroke="#a6a6a6" stroke-width="1" /><polygon fill="#d2e6ff" points="1012.5,312.5 1112.5,312.5 1112.5,412.5 1012.5,412.5" stroke="#c3cdd8" stroke-width="1" /><circle cx="1062.5" cy="362.5" fill="#8a7af0" r="15" stroke="#a6a6a6" stroke-width="1" /><polygon fill="#d2e6ff" points="1112.5,312.5 1212.5,312.5 1212.5,412.5 1112.5,412.5" stroke="#c3cdd8" stroke-width="1" /><circle cx="1162.5" cy="362.5" fill="#8a7af0" r="15" stroke="#a6a6a6" stroke-width="1" /><polygon fill="#d2e6ff" points="1212.5,312.5 1312.5,312.5 1312.5,412.5 1212.5,412.5" stroke="#c3cdd8" stroke-width="1" /><circle cx="1262.5" cy="362.5" fill="#8a7af0" r="15" stroke="#a6a6a6" stroke-width="1" /><polygon fill="#d2e6ff" points="12.5,412.5 112.5,412.5 112.5,512.5 12.5,512.5" stroke="#c3cdd8" stroke-width="1" /><circle cx="62.5" cy="462.5" fill="#8a7af0" r="15" stroke="#a6a6a6" stroke-width="1" /><polygon fill="#d2e6ff" points="112.5,412.5 212.5,412.5 212.5,512.5 112.5,512.5" stroke="#c3cdd8" stroke-width="1" /><circle cx="162.5" cy="462.5" fill="#8a7af0" r="15" stroke="#a6a6a6" stroke-width="1" /><polygon fill="#d2e6ff" points="212.5,412.5 312.5,412.5 312.5,512.5 212.5,512.5" stroke="#c3cdd8" stroke-width="1" /><circle cx="262.5" cy="462.5" fill="#8a7af0" r="15" stroke="#a6a6a6" stroke-width="1" /><polygon fill="#d2e6ff" points="312.5,412.5 412.5,412.5 412.5,512.5 312.5,512.5" stroke="#c3cdd8" stroke-width="1" /><circle cx="362.5" cy="462.5" fill="#8a7af0" r="15" stroke="#a6a6a6" stroke-width="1" /><polygon fill="#d2e6ff" points="412.5,412.5 512.5,412.5 512.5,512.5 412.5,512.5" stroke="#c3cdd8" stroke-width="1" /><circle cx="462.5" cy="462.5" fill="#8a7af0" r="15" stroke="#a6a6a6" stroke-width="1" /><polygon fill="#d2e6ff" points="512.5,412.5 612.5,412.5 612.5,512.5 512.5,512.5" stroke="#c3cdd8" stroke-width="1" /><circle cx="562.5" cy="462.5" fill="#8a7af0" r="15" stroke="#a6a6a6" stroke-width="1" /><polygon fill="#d2e6ff" points="612.5,412.5 712.5,412.5 712.5,512.5 612.5,512.5" stroke="#c3cdd8" stroke-width="1" /><circle cx="662.5" cy="462.5" fill="#8a7af0" r="15" stroke="#a6a6a6" stroke-width="1" /><polygon fill="#d2e6ff" points="712.5,412.5 812.5,412.5 812.5,512.5 712.5,512.5" stroke="#c3cdd8" stroke-width="1" /><circle cx="762.5" cy="462.5" fill="#8a7af0" r="15" stroke="#a6a6a6" stroke-width="1" /><polygon fill="#d2e6ff" points="812.5,412.5 912.5,412.5 912.5,512.5 812.5,512.5" stroke="#c3cdd8" stroke-width="1" /><circle cx="862.5" cy="462.5" fill="#8a7af0" r="15" stroke="#a6a6a6" stroke-width="1" /><polygon fill="#d2e6ff" points="912.5,412.5 1012.5,412.5 1012.5,512.5 912.5,512.5" stroke="#c3cdd8" stroke-width="1" /><circle cx="962.5" cy="462.5" fill="#8a7af0" r="15" stroke="#a6a6a6" stroke-width="1" /><polygon fill="#d2e6ff" points="1012.5,412.5 1112.5,412.5 1112.5,512.5 1012.5,512.5" stroke="#c3cdd8" stroke-width="1" /><circle cx="1062.5" cy="462.5" fill="#8a7af0" r="15" stroke="#a6a6a6" stroke-width="1" /><polygon fill="#d2e6ff" points="1112.5,412.5 1212.5,412.5 1212.5,512.5 1112.5,512.5" stroke="#c3cdd8" stroke-width="1" /><circle cx="1162.5" cy="462.5" fill="#8a7af0" r="15" stroke="#a6a6a6" stroke-width="1" /><polygon fill="#d2e6ff" points="1212.5,412.5 1312.5,412.5 1312.5,512.5 1212.5,512.5" stroke="#c3cdd8" stroke-width="1" /><circle cx="1262.5" cy="462.5" fill="#8a7af0" r="15" stroke="#a6a6a6" stroke-width="1" /><polygon fill="#d2e6ff" points="12.5,512.5 112.5,512.5 112.5,612.5 12.5,612.5" stroke="#c3cdd8" stroke-width="1" /><circle cx="62.5" cy="562.5" fill="#8a7af0" r="15" stroke="#a6a6a6" stroke-width="1" /><polygon fill="#d2e6ff" points="112.5,512.5 212.5,512.5 212.5,612.5 112.5,612.5" stroke="#c3cdd8" stroke-width="1" /><circle cx="162.5" cy="562.5" fill="#8a7af0" r="15" stroke="#a6a6a6" stroke-width="1" /><polygon fill="#d2e6ff" points="212.5,512.5 312.5,512.5 312.5,612.5 212.5,612.5" stroke="#c3cdd8" stroke-width="1" /><circle cx="262.5" cy="562.5" fill="#8a7af0" r="15" stroke="#a6a6a6" stroke-width="1" /><polygon fill="#d2e6ff" points="312.5,512.5 412.5,512.5 412.5,612.5 312.5,612.5" stroke="#c3cdd8" stroke-width="1" /><circle cx="362.5" cy="562.5" fill="#8a7af0" r="15" stroke="#a6a6a6" stroke-width="1" /><polygon fill="#d2e6ff" points="412.5,512.5 512.5,512.5 512.5,612.5 412.5,612.5" stroke="#c3cdd8" stroke-width="1" /><circle cx="462.5" cy="562.5" fill="#8a7af0" r="15" stroke="#a6a6a6" stroke-width="1" /><polygon fill="#d2e6ff" points="512.5,512.5 612.5,512.5 612.5,612.5 512.5,612.5" stroke="#c3cdd8" stroke-width="1" /><circle cx="562.5" cy="562.5" fill="#8a7af0" r="15" stroke="#a6a6a6" stroke-width="1" /><polygon fill="#d2e6ff" points="612.5,512.5 712.5,512.5 712.5,612.5 612.5,612.5" stroke="#c3cdd8" stroke-width="1" /><circle cx="662.5" cy="562.5" fill="#8a7af0" r="15" stroke="#a6a6a6" stroke-width="1" /><polygon fill="#d2e6ff" points="712.5,512.5 812.5,512.5 812.5,612.5 712.5,612.5" stroke="#c3cdd8" stroke-width="1" /><circle cx="762.5" cy="562.5" fill="#8a7af0" r="15" stroke="#a6a6a6" stroke-width="1" /><polygon fill="#d2e6ff" points="812.5,512.5 912.5,512.5 912.5,612.5 812.5,612.5" stroke="#c3cdd8" stroke-width="1" /><circle cx="862.5" cy="562.5" fill="#8a7af0" r="15" stroke="#a6a6a6" stroke-width="1" /><polygon fill="#d2e6ff" points="912.5,512.5 1012.5,512.5 1012.5,612.5 912.5,612.5" stroke="#c3cdd8" stroke-width="1" /><circle cx="962.5" cy="562.5" fill="#8a7af0" r="15" stroke="#a6a6a6" stroke-width="1" /><polygon fill="#d2e6ff" points="1012.5,512.5 1112.5,512.5 1112.5,612.5 1012.5,612.5" stroke="#c3cdd8" stroke-width="1" /><circle cx="1062.5" cy="562.5" fill="#8a7af0" r="15" stroke="#a6a6a6" stroke-width="1" /><polygon fill="#d2e6ff" points="1112.5,512.5 1212.5,512.5 1212.5,612.5 1112.5,612.5" stroke="#c3cdd8" stroke-width="1" /><circle cx="1162.5" cy="562.5" fill="#8a7af0" r="15" stroke="#a6a6a6" stroke-width="1" /><polygon fill="#d2e6ff" points="1212.5,512.5 1312.5,512.5 1312.5,612.5 1212.5,612.5" stroke="#c3cdd8" stroke-width="1" /><circle cx="1262.5" cy="562.5" fill="#8a7af0" r="15" stroke="#a6a6a6" stroke-width="1" /><polygon fill="#d2e6ff" points="12.5,612.5 112.5,612.5 112.5,712.5 12.5,712.5" stroke="#c3cdd8" stroke-width="1" /><circle cx="62.5" cy="662.5" fill="#8a7af0" r="15" stroke="#a6a6a6" stroke-width="1" /><polygon fill="#d2e6ff" points="112.5,612.5 212.5,612.5 212.5,712.5 112.5,712.5" stroke="#c3cdd8" stroke-width="1" /><circle cx="162.5" cy="662.5" fill="#8a7af0" r="15" stroke="#a6a6a6" stroke-width="1" /><polygon fill="#d2e6ff" points="212.5,612.5 312.5,612.5 312.5,712.5 212.5,712.5" stroke="#c3cdd8" stroke-width="1" /><circle cx="262.5" cy="662.5" fill="#8a7af0" r="15" stroke="#a6a6a6" stroke-width="1" /><polygon fill="#d2e6ff" points="312.5,612.5 412.5,612.5 412.5,712.5 312.5,712.5" stroke="#c3cdd8" stroke-width="1" /><circle cx="362.5" cy="662.5" fill="#8a7af0" r="15" stroke="#a6a6a6" stroke-width="1" /><polygon fill="#d2e6ff" points="412.5,612.5 512.5,612.5 512.5,712.5 412.5,712.5" stroke="#c3cdd8" stroke-width="1" /><circle cx="462.5" cy="662.5" fill="#8a7af0" r="15" stroke="#a6a6a6" stroke-width="1" /><polygon fill="#d2e6ff" points="512.5,612.5 612.5,612.5 612.5,712.5 512.5,712.5" stroke="#c3cdd8" stroke-width="1" /><circle cx="562.5" cy="662.5" fill="#8a7af0" r="15" stroke="#a6a6a6" stroke-width="1" /><polygon fill="#d2e6ff" points="612.5,612.5 712.5,612.5 712.5,712.5 612.5,712.5" stroke="#c3cdd8" stroke-width="1" /><circle cx="662.5" cy="662.5" fill="#8a7af0" r="15" stroke="#a6a6a6" stroke-width="1" /><polygon fill="#d2e6ff" points="712.5,612.5 812.5,612.5 812.5,712.5 712.5,712.5" stroke="#c3cdd8" stroke-width="1" /><circle cx="762.5" cy="662.5" fill="#8a7af0" r="15" stroke="#a6a6a6" stroke-width="1" /><polygon fill="#d2e6ff" points="812.5,612.5 912.5,612.5 912.5,712.5 812.5,712.5" stroke="#c3cdd8" stroke-width="1" /><circle cx="862.5" cy="662.5" fill="#8a7af0" r="15" stroke="#a6a6a6" stroke-width="1" /><polygon fill="#d2e6ff" points="912.5,612.5 1012.5,612.5 1012.5,712.5 912.5,712.5" stroke="#c3cdd8" stroke-width="1" /><circle cx="962.5" cy="662.5" fill="#8a7af0" r="15" stroke="#a6a6a6" stroke-width="1" /><polygon fill="#d2e6ff" points="1012.5,612.5 1112.5,612.5 1112.5,712.5 1012.5,712.5" stroke="#c3cdd8" stroke-width="1" /><circle cx="1062.5" cy="662.5" fill="#8a7af0" r="15" stroke="#a6a6a6" stroke-width="1" /><polygon fill="#d2e6ff" points="1112.5,612.5 1212.5,612.5 1212.5,712.5 1112.5,712.5" stroke="#c3cdd8" stroke-width="1" /><circle cx="1162.5" cy="662.5" fill="#8a7af0" r="15" stroke="#a6a6a6" stroke-width="1" /><polygon fill="#d2e6ff" points="1212.5,612.5 1312.5,612.5 1312.5,712.5 1212.5,712.5" stroke="#c3cdd8" stroke-width="1" /><circle cx="1262.5" cy="662.5" fill="#8a7af0" r="15" stroke="#a6a6a6" stroke-width="1" /><polygon fill="#d2e6ff" points="12.5,712.5 112.5,712.5 112.5,812.5 12.5,812.5" stroke="#c3cdd8" stroke-width="1" /><circle cx="62.5" cy="762.5" fill="#8a7af0" r="15" stroke="#a6a6a6" stroke-width="1" /><polygon fill="#d2e6ff" points="112.5,712.5 212.5,712.5 212.5,812.5 112.5,812.5" stroke="#c3cdd8" stroke-width="1" /><circle cx="162.5" cy="762.5" fill="#8a7af0" r="15" stroke="#a6a6a6" stroke-width="1" /><polygon fill="#d2e6ff" points="212.5,712.5 312.5,712.5 312.5,812.5 212.5,812.5" stroke="#c3cdd8" stroke-width="1" /><circle cx="262.5" cy="762.5" fill="#8a7af0" r="15" stroke="#a6a6a6" stroke-width="1" /><polygon fill="#d2e6ff" points="312.5,712.5 412.5,712.5 412.5,812.5 312.5,812.5" stroke="#c3cdd8" stroke-width="1" /><circle cx="362.5" cy="762.5" fill="#8a7af0" r="15" stroke="#a6a6a6" stroke-width="1" /><polygon fill="#d2e6ff" points="412.5,712.5 512.5,712.5 512.5,812.5 412.5,812.5" stroke="#c3cdd8" stroke-width="1" /><circle cx="462.5" cy="762.5" fill="#8a7af0" r="15" stroke="#a6a6a6" stroke-width="1" /><polygon fill="#d2e6ff" points="512.5,712.5 612.5,712.5 612.5,812.5 512.5,812.5" stroke="#c3cdd8" stroke-width="1" /><circle cx="562.5" cy="762.5" fill="#8a7af0" r="15" stroke="#a6a6a6" stroke-width="1" /><polygon fill="#d2e6ff" points="612.5,712.5 712.5,712.5 712.5,812.5 612.5,812.5" stroke="#c3cdd8" stroke-width="1" /><circle cx="662.5" cy="762.5" fill="#8a7af0" r="15" stroke="#a6a6a6" stroke-width="1" /><polygon fill="#d2e6ff" points="712.5,712.5 812.5,712.5 812.5,812.5 712.5,812.5" stroke="#c3cdd8" stroke-width="1" /><circle cx="762.5" cy="762.5" fill="#8a7af0" r="15" stroke="#a6a6a6" stroke-width="1" /><polygon fill="#d2e6ff" points="812.5,712.5 912.5,712.5 912.5,812.5 812.5,812.5" stroke="#c3cdd8" stroke-width="1" /><circle cx="862.5" cy="762.5" fill="#8a7af0" r="15" stroke="#a6a6a6" stroke-width="1" /><polygon fill="#d2e6ff" points="912.5,712.5 1012.5,712.5 1012.5,812.5 912.5,812.5" stroke="#c3cdd8" stroke-width="1" /><circle cx="962.5" cy="762.5" fill="#8a7af0" r="15" stroke="#a6a6a6" stroke-width="1" /><polygon fill="#d2e6ff" points="1012.5,712.5 1112.5,712.5 1112.5,812.5 1012.5,812.5" stroke="#c3cdd8" stroke-width="1" /><circle cx="1062.5" cy="762.5" fill="#8a7af0" r="15" stroke="#a6a6a6" stroke-width="1" /><polygon fill="#d2e6ff" points="1112.5,712.5 1212.5,712.5 1212.5,812.5 1112.5,812.5" stroke="#c3cdd8" stroke-width="1" /><circle cx="1162.5" cy="762.5" fill="#8a7af0" r="15" stroke="#a6a6a6" stroke-width="1" /><polygon fill="#d2e6ff" points="1212.5,712.5 1312.5,712.5 1312.5,812.5 1212.5,812.5" stroke="#c3cdd8" stroke-width="1" /><circle cx="1262.5" cy="762.5" fill="#8a7af0" r="15" stroke="#a6a6a6" stroke-width="1" /><polygon fill="#d2e6ff" points="12.5,812.5 112.5,812.5 112.5,912.5 12.5,912.5" stroke="#c3cdd8" stroke-width="1" /><circle cx="62.5" cy="862.5" fill="#8a7af0" r="15" stroke="#a6a6a6" stroke-width="1" /><polygon fill="#d2e6ff" points="112.5,812.5 212.5,812.5 212.5,912.5 112.5,912.5" stroke="#c3cdd8" stroke-width="1" /><circle cx="162.5" cy="862.5" fill="#8a7af0" r="15" stroke="#a6a6a6" stroke-width="1" /><polygon fill="#d2e6ff" points="212.5,812.5 312.5,812.5 312.5,912.5 212.5,912.5" stroke="#c3cdd8" stroke-width="1" /><circle cx="262.5" cy="862.5" fill="#8a7af0" r="15" stroke="#a6a6a6" stroke-width="1" /><polygon fill="#d2e6ff" points="312.5,812.5 412.5,812.5 412.5,912.5 312.5,912.5" stroke="#c3cdd8" stroke-width="1" /><circle cx="362.5" cy="862.5" fill="#8a7af0" r="15" stroke="#a6a6a6" stroke-width="1" /><polygon fill="#d2e6ff" points="412.5,812.5 512.5,812.5 512.5,912.5 412.5,912.5" stroke="#c3cdd8" stroke-width="1" /><circle cx="462.5" cy="862.5" fill="#8a7af0" r="15" stroke="#a6a6a6" stroke-width="1" /><polygon fill="#d2e6ff" points="512.5,812.5 612.5,812.5 612.5,912.5 512.5,912.5" stroke="#c3cdd8" stroke-width="1" /><circle cx="562.5" cy="862.5" fill="#8a7af0" r="15" stroke="#a6a6a6" stroke-width="1" /><polygon fill="#d2e6ff" points="612.5,812.5 712.5,812.5 712.5,912.5 612.5,912.5" stroke="#c3cdd8" stroke-width="1" /><circle cx="662.5" cy="862.5" fill="#8a7af0" r="15" stroke="#a6a6a6" stroke-width="1" /><polygon fill="#d2e6ff" points="712.5,812.5 812.5,812.5 812.5,912.5 712.5,912.5" stroke="#c3cdd8" stroke-width="1" /><circle cx="762.5" cy="862.5" fill="#8a7af0" r="15" stroke="#a6a6a6" stroke-width="1" /><polygon fill="#d2e6ff" points="812.5,812.5 912.5,812.5 912.5,912.5 812.5,912.5" stroke="#c3cdd8" stroke-width="1" /><circle cx="862.5" cy="862.5" fill="#8a7af0" r="15" stroke="#a6a6a6" stroke-width="1" /><polygon fill="#d2e6ff" points="912.5,812.5 1012.5,812.5 1012.5,912.5 912.5,912.5" stroke="#c3cdd8" stroke-width="1" /><circle cx="962.5" cy="862.5" fill="#8a7af0" r="15" stroke="#a6a6a6" stroke-width="1" /><polygon fill="#d2e6ff" points="1012.5,812.5 1112.5,812.5 1112.5,912.5 1012.5,912.5" stroke="#c3cdd8" stroke-width="1" /><circle cx="1062.5" cy="862.5" fill="#8a7af0" r="15" stroke="#a6a6a6" stroke-width="1" /><polygon fill="#d2e6ff" points="1112.5,812.5 1212.5,812.5 1212.5,912.5 1112.5,912.5" stroke="#c3cdd8" stroke-width="1" /><circle cx="1162.5" cy="862.5" fill="#8a7af0" r="15" stroke="#a6a6a6" stroke-width="1" /><polygon fill="#d2e6ff" points="1212.5,812.5 1312.5,812.5 1312.5,912.5 1212.5,912.5" stroke="#c3cdd8" stroke-width="1" /><circle cx="1262.5" cy="862.5" fill="#8a7af0" r="15" stroke="#a6a6a6" stroke-width="1" /><polygon fill="#d2e6ff" points="12.5,912.5 112.5,912.5 112.5,1012.5 12.5,1012.5" stroke="#c3cdd8" stroke-width="1" /><circle cx="62.5" cy="962.5" fill="#8a7af0" r="15" stroke="#a6a6a6" stroke-width="1" /><polygon fill="#d2e6ff" points="112.5,912.5 212.5,912.5 212.5,1012.5 112.5,1012.5" stroke="#c3cdd8" stroke-width="1" /><circle cx="162.5" cy="962.5" fill="#8a7af0" r="15" stroke="#a6a6a6" stroke-width="1" /><polygon fill="#d2e6ff" points="212.5,912.5 312.5,912.5 312.5,1012.5 212.5,1012.5" stroke="#c3cdd8" stroke-width="1" /><circle cx="262.5" cy="962.5" fill="#8a7af0" r="15" stroke="#a6a6a6" stroke-width="1" /><polygon fill="#d2e6ff" points="312.5,912.5 412.5,912.5 412.5,1012.5 312.5,1012.5" stroke="#c3cdd8" stroke-width="1" /><circle cx="362.5" cy="962.5" fill="#8a7af0" r="15" stroke="#a6a6a6" stroke-width="1" /><polygon fill="#d2e6ff" points="412.5,912.5 512.5,912.5 512.5,1012.5 412.5,1012.5" stroke="#c3cdd8" stroke-width="1" /><circle cx="462.5" cy="962.5" fill="#8a7af0" r="15" stroke="#a6a6a6" stroke-width="1" /><polygon fill="#d2e6ff" points="512.5,912.5 612.5,912.5 612.5,1012.5 512.5,1012.5" stroke="#c3cdd8" stroke-width="1" /><circle cx="562.5" cy="962.5" fill="#8a7af0" r="15" stroke="#a6a6a6" stroke-width="1" /><polygon fill="#d2e6ff" points="612.5,912.5 712.5,912.5 712.5,1012.5 612.5,1012.5" stroke="#c3cdd8" stroke-width="1" /><circle cx="662.5" cy="962.5" fill="#8a7af0" r="15" stroke="#a6a6a6" stroke-width="1" /><polygon fill="#d2e6ff" points="712.5,912.5 812.5,912.5 812.5,1012.5 712.5,1012.5" stroke="#c3cdd8" stroke-width="1" /><circle cx="762.5" cy="962.5" fill="#8a7af0" r="15" stroke="#a6a6a6" stroke-width="1" /><polygon fill="#d2e6ff" points="812.5,912.5 912.5,912.5 912.5,1012.5 812.5,1012.5" stroke="#c3cdd8" stroke-width="1" /><circle cx="862.5" cy="962.5" fill="#8a7af0" r="15" stroke="#a6a6a6" stroke-width="1" /><polygon fill="#d2e6ff" points="912.5,912.5 1012.5,912.5 1012.5,1012.5 912.5,1012.5" stroke="#c3cdd8" stroke-width="1" /><circle cx="962.5" cy="962.5" fill="#8a7af0" r="15" stroke="#a6a6a6" stroke-width="1" /><polygon fill="#d2e6ff" points="1012.5,912.5 1112.5,912.5 1112.5,1012.5 1012.5,1012.5" stroke="#c3cdd8" stroke-width="1" /><circle cx="1062.5" cy="962.5" fill="#8a7af0" r="15" stroke="#a6a6a6" stroke-width="1" /><polygon fill="#d2e6ff" points="1112.5,912.5 1212.5,912.5 1212.5,1012.5 1112.5,1012.5" stroke="#c3cdd8" stroke-width="1" /><circle cx="1162.5" cy="962.5" fill="#8a7af0" r="15" stroke="#a6a6a6" stroke-width="1" /><polygon fill="#d2e6ff" points="1212.5,912.5 1312.5,912.5 1312.5,1012.5 1212.5,1012.5" stroke="#c3cdd8" stroke-width="1" /><circle cx="1262.5" cy="962.5" fill="#8a7af0" r="15" stroke="#a6a6a6" stroke-width="1" /><polygon fill="#d2e6ff" points="12.5,1012.5 112.5,1012.5 112.5,1112.5 12.5,1112.5" stroke="#c3cdd8" stroke-width="1" /><circle cx="62.5" cy="1062.5" fill="#8a7af0" r="15" stroke="#a6a6a6" stroke-width="1" /><polygon fill="#d2e6ff" points="112.5,1012.5 212.5,1012.5 212.5,1112.5 112.5,1112.5" stroke="#c3cdd8" stroke-width="1" /><circle cx="162.5" cy="1062.5" fill="#8a7af0" r="15" stroke="#a6a6a6" stroke-width="1" /><polygon fill="#d2e6ff" points="212.5,1012.5 312.5,1012.5 312.5,1112.5 212.5,1112.5" stroke="#c3cdd8" stroke-width="1" /><circle cx="262.5" cy="1062.5" fill="#8a7af0" r="15" stroke="#a6a6a6" stroke-width="1" /><polygon fill="#d2e6ff" points="312.5,1012.5 412.5,1012.5 412.5,1112.5 312.5,1112.5" stroke="#c3cdd8" stroke-width="1" /><circle cx="362.5" cy="1062.5" fill="#8a7af0" r="15" stroke="#a6a6a6" stroke-width="1" /><polygon fill="#d2e6ff" points="412.5,1012.5 512.5,1012.5 512.5,1112.5 412.5,1112.5" stroke="#c3cdd8" stroke-width="1" /><circle cx="462.5" cy="1062.5" fill="#8a7af0" r="15" stroke="#a6a6a6" stroke-width="1" /><polygon fill="#d2e6ff" points="512.5,1012.5 612.5,1012.5 612.5,1112.5 512.5,1112.5" stroke="#c3cdd8" stroke-width="1" /><circle cx="562.5" cy="1062.5" fill="#8a7af0" r="15" stroke="#a6a6a6" stroke-width="1" /><polygon fill="#d2e6ff" points="612.5,1012.5 712.5,1012.5 712.5,1112.5 612.5,1112.5" stroke="#c3cdd8" stroke-width="1" /><circle cx="662.5" cy="1062.5" fill="#8a7af0" r="15" stroke="#a6a6a6" stroke-width="1" /><polygon fill="#d2e6ff" points="712.5,1012.5 812.5,1012.5 812.5,1112.5 712.5,1112.5" stroke="#c3cdd8" stroke-width="1" /><circle cx="762.5" cy="1062.5" fill="#8a7af0" r="15" stroke="#a6a6a6" stroke-width="1" /><polygon fill="#d2e6ff" points="812.5,1012.5 912.5,1012.5 912.5,1112.5 812.5,1112.5" stroke="#c3cdd8" stroke-width="1" /><circle cx="862.5" cy="1062.5" fill="#8a7af0" r="15" stroke="#a6a6a6" stroke-width="1" /><polygon fill="#d2e6ff" points="912.5,1012.5 1012.5,1012.5 1012.5,1112.5 912.5,1112.5" stroke="#c3cdd8" stroke-width="1" /><circle cx="962.5" cy="1062.5" fill="#8a7af0" r="15" stroke="#a6a6a6" stroke-width="1" /><polygon fill="#d2e6ff" points="1012.5,1012.5 1112.5,1012.5 1112.5,1112.5 1012.5,1112.5" stroke="#c3cdd8" stroke-width="1" /><circle cx="1062.5" cy="1062.5" fill="#8a7af0" r="15" stroke="#a6a6a6" stroke-width="1" /><polygon fill="#d2e6ff" points="1112.5,1012.5 1212.5,1012.5 1212.5,1112.5 1112.5,1112.5" stroke="#c3cdd8" stroke-width="1" /><circle cx="1162.5" cy="1062.5" fill="#8a7af0" r="15" stroke="#a6a6a6" stroke-width="1" /><polygon fill="#d2e6ff" points="1212.5,1012.5 1312.5,1012.5 1312.5,1112.5 1212.5,1112.5" stroke="#c3cdd8" stroke-width="1" /><circle cx="1262.5" cy="1062.5" fill="#8a7af0" r="15" stroke="#a6a6a6" stroke-width="1" /><polygon fill="#d2e6ff" points="12.5,1112.5 112.5,1112.5 112.5,1212.5 12.5,1212.5" stroke="#c3cdd8" stroke-width="1" /><circle cx="62.5" cy="1162.5" fill="#8a7af0" r="15" stroke="#a6a6a6" stroke-width="1" /><polygon fill="#d2e6ff" points="112.5,1112.5 212.5,1112.5 212.5,1212.5 112.5,1212.5" stroke="#c3cdd8" stroke-width="1" /><circle cx="162.5" cy="1162.5" fill="#8a7af0" r="15" stroke="#a6a6a6" stroke-width="1" /><polygon fill="#d2e6ff" points="212.5,1112.5 312.5,1112.5 312.5,1212.5 212.5,1212.5" stroke="#c3cdd8" stroke-width="1" /><circle cx="262.5" cy="1162.5" fill="#8a7af0" r="15" stroke="#a6a6a6" stroke-width="1" /><polygon fill="#d2e6ff" points="312.5,1112.5 412.5,1112.5 412.5,1212.5 312.5,1212.5" stroke="#c3cdd8" stroke-width="1" /><circle cx="362.5" cy="1162.5" fill="#8a7af0" r="15" stroke="#a6a6a6" stroke-width="1" /><polygon fill="#d2e6ff" points="412.5,1112.5 512.5,1112.5 512.5,1212.5 412.5,1212.5" stroke="#c3cdd8" stroke-width="1" /><circle cx="462.5" cy="1162.5" fill="#8a7af0" r="15" stroke="#a6a6a6" stroke-width="1" /><polygon fill="#d2e6ff" points="512.5,1112.5 612.5,1112.5 612.5,1212.5 512.5,1212.5" stroke="#c3cdd8" stroke-width="1" /><circle cx="562.5" cy="1162.5" fill="#8a7af0" r="15" stroke="#a6a6a6" stroke-width="1" /><polygon fill="#d2e6ff" points="612.5,1112.5 712.5,1112.5 712.5,1212.5 612.5,1212.5" stroke="#c3cdd8" stroke-width="1" /><circle cx="662.5" cy="1162.5" fill="#8a7af0" r="15" stroke="#a6a6a6" stroke-width="1" /><polygon fill="#d2e6ff" points="712.5,1112.5 812.5,1112.5 812.5,1212.5 712.5,1212.5" stroke="#c3cdd8" stroke-width="1" /><circle cx="762.5" cy="1162.5" fill="#8a7af0" r="15" stroke="#a6a6a6" stroke-width="1" /><polygon fill="#d2e6ff" points="812.5,1112.5 912.5,1112.5 912.5,1212.5 812.5,1212.5" stroke="#c3cdd8" stroke-width="1" /><circle cx="862.5" cy="1162.5" fill="#8a7af0" r="15" stroke="#a6a6a6" stroke-width="1" /><polygon fill="#d2e6ff" points="912.5,1112.5 1012.5,1112.5 1012.5,1212.5 912.5,1212.5" stroke="#c3cdd8" stroke-width="1" /><circle cx="962.5" cy="1162.5" fill="#8a7af0" r="15" stroke="#a6a6a6" stroke-width="1" /><polygon fill="#d2e6ff" points="1012.5,1112.5 1112.5,1112.5 1112.5,1212.5 1012.5,1212.5" stroke="#c3cdd8" stroke-width="1" /><circle cx="1062.5" cy="1162.5" fill="#8a7af0" r="15" stroke="#a6a6a6" stroke-width="1" /><polygon fill="#d2e6ff" points="1112.5,1112.5 1212.5,1112.5 1212.5,1212.5 1112.5,1212.5" stroke="#c3cdd8" stroke-width="1" /><circle cx="1162.5" cy="1162.5" fill="#8a7af0" r="15" stroke="#a6a6a6" stroke-width="1" /><polygon fill="#d2e6ff" points="1212.5,1112.5 1312.5,1112.5 1312.5,1212.5 1212.5,1212.5" stroke="#c3cdd8" stroke-width="1" /><circle cx="1262.5" cy="1162.5" fill="#8a7af0" r="15" stroke="#a6a6a6" stroke-width="1" /><polygon fill="#d2e6ff" points="12.5,1212.5 112.5,1212.5 112.5,1312.5 12.5,1312.5" stroke="#c3cdd8" stroke-width="1" /><circle cx="62.5" cy="1262.5" fill="#8a7af0" r="15" stroke="#a6a6a6" stroke-width="1" /><polygon fill="#d2e6ff" points="112.5,1212.5 212.5,1212.5 212.5,1312.5 112.5,1312.5" stroke="#c3cdd8" stroke-width="1" /><circle cx="162.5" cy="1262.5" fill="#8a7af0" r="15" stroke="#a6a6a6" stroke-width="1" /><polygon fill="#d2e6ff" points="212.5,1212.5 312.5,1212.5 312.5,1312.5 212.5,1312.5" stroke="#c3cdd8" stroke-width="1" /><circle cx="262.5" cy="1262.5" fill="#8a7af0" r="15" stroke="#a6a6a6" stroke-width="1" /><polygon fill="#d2e6ff" points="312.5,1212.5 412.5,1212.5 412.5,1312.5 312.5,1312.5" stroke="#c3cdd8" stroke-width="1" /><circle cx="362.5" cy="1262.5" fill="#8a7af0" r="15" stroke="#a6a6a6" stroke-width="1" /><polygon fill="#d2e6ff" points="412.5,1212.5 512.5,1212.5 512.5,1312.5 412.5,1312.5" stroke="#c3cdd8" stroke-width="1" /><circle cx="462.5" cy="1262.5" fill="#8a7af0" r="15" stroke="#a6a6a6" stroke-width="1" /><polygon fill="#d2e6ff" points="512.5,1212.5 612.5,1212.5 612.5,1312.5 512.5,1312.5" stroke="#c3cdd8" stroke-width="1" /><circle cx="562.5" cy="1262.5" fill="#8a7af0" r="15" stroke="#a6a6a6" stroke-width="1" /><polygon fill="#d2e6ff" points="612.5,1212.5 712.5,1212.5 712.5,1312.5 612.5,1312.5" stroke="#c3cdd8" stroke-width="1" /><circle cx="662.5" cy="1262.5" fill="#8a7af0" r="15" stroke="#a6a6a6" stroke-width="1" /><polygon fill="#d2e6ff" points="712.5,1212.5 812.5,1212.5 812.5,1312.5 712.5,1312.5" stroke="#c3cdd8" stroke-width="1" /><circle cx="762.5" cy="1262.5" fill="#8a7af0" r="15" stroke="#a6a6a6" stroke-width="1" /><polygon fill="#d2e6ff" points="812.5,1212.5 912.5,1212.5 912.5,1312.5 812.5,1312.5" stroke="#c3cdd8" stroke-width="1" /><circle cx="862.5" cy="1262.5" fill="#8a7af0" r="15" stroke="#a6a6a6" stroke-width="1" /><polygon fill="#d2e6ff" points="912.5,1212.5 1012.5,1212.5 1012.5,1312.5 912.5,1312.5" stroke="#c3cdd8" stroke-width="1" /><circle cx="962.5" cy="1262.5" fill="#8a7af0" r="15" stroke="#a6a6a6" stroke-width="1" /><polygon fill="#d2e6ff" points="1012.5,1212.5 1112.5,1212.5 1112.5,1312.5 1012.5,1312.5" stroke="#c3cdd8" stroke-width="1" /><circle cx="1062.5" cy="1262.5" fill="#8a7af0" r="15" stroke="#a6a6a6" stroke-width="1" /><polygon fill="#d2e6ff" points="1112.5,1212.5 1212.5,1212.5 1212.5,1312.5 1112.5,1312.5" stroke="#c3cdd8" stroke-width="1" /><circle cx="1162.5" cy="1262.5" fill="#8a7af0" r="15" stroke="#a6a6a6" stroke-width="1" /><polygon fill="#d2e6ff" points="1212.5,1212.5 1312.5,1212.5 1312.5,1312.5 1212.5,1312.5" stroke="#c3cdd8" stroke-width="1" /><circle cx="1262.5" cy="1262.5" fill="#8a7af0" r="15" stroke="#a6a6a6" stroke-width="1" /><rect class="btn" height="1325.0" onclick="handleClick(event)" width="1325.0" x="0" y="0" /></svg>